<svg xmlns="http://www.w3.org/2000/svg" width="150" height="150" viewBox="0 0 150 150" fill="none"><metadata><rdf:RDF xmlns:rdf="http://www.w3.org/1999/02/22-rdf-syntax-ns#" xmlns:dc="http://purl.org/dc/elements/1.1/"><rdf:Description><dc:creator>RealFaviconGenerator</dc:creator><dc:source>https://realfavicongenerator.net</dc:source></rdf:Description></rdf:RDF></metadata><rect width="150" height="150" rx="75" fill="#161616"></rect><path d="M52.4822 106V44.1818H76.8715C81.54 44.1818 85.5244 45.0169 88.8246 46.6871C92.1449 48.3372 94.6703 50.6816 96.4009 53.7202C98.1516 56.7386 99.027 60.2904 99.027 64.3754C99.027 68.4805 98.1416 72.0121 96.3707 74.9702C94.5999 77.9081 92.0342 80.1619 88.6737 81.7315C85.3332 83.3011 81.2885 84.0859 76.5394 84.0859H60.2095V73.5817H74.4265C76.9218 73.5817 78.9944 73.2396 80.6445 72.5554C82.2946 71.8712 83.5221 70.8449 84.3271 69.4766C85.1521 68.1082 85.5646 66.4078 85.5646 64.3754C85.5646 62.3228 85.1521 60.5922 84.3271 59.1836C83.5221 57.775 82.2846 56.7084 80.6143 55.984C78.9643 55.2395 76.8815 54.8672 74.3661 54.8672H65.5522V106H52.4822ZM85.8665 77.8679L101.23 106H86.8022L71.7702 77.8679H85.8665Z" fill="white"></path></svg>